<svg xmlns="http://www.w3.org/2000/svg"><symbol id="hero-icon-01" viewBox="0 0 32 32"><path d="M31.57 2.88h-5.918L18.356.5a3.102 3.102 0 00-2.643.34l-4.396 2.825a.429.429 0 10.463.722l4.396-2.82a2.242 2.242 0 011.914-.243l7.363 2.395a.42.42 0 00.133.021h5.556v7.21H27.95a.43.43 0 00-.381.232 4.317 4.317 0 01-2.091 1.802v-1.929c.688-.293 1.422-.804 1.89-1.694a.43.43 0 00-.76-.402c-.816 1.56-2.844 1.63-2.856 1.63-2.717 0-3.501-1.897-3.533-1.976a.43.43 0 00-.4-.275h-4.033a1.146 1.146 0 110-2.291H20.6a.43.43 0 100-.859h-4.813a2.004 2.004 0 100 4.009h3.764c.358.658 1.507 2.25 4.211 2.25a4.63 4.63 0 00.858-.119v6.363a.634.634 0 01-.633.634H1.834a.635.635 0 01-.634-.632V6.68a.634.634 0 01.633-.633h10.946a.43.43 0 100-.859H1.834A1.497 1.497 0 00.342 6.68v11.013a1.497 1.497 0 001.492 1.492h22.152a1.497 1.497 0 001.492-1.492v-3.8c1.539-.49 2.4-1.6 2.715-2.086h3.377a.43.43 0 00.43-.428V3.31a.43.43 0 00-.43-.43z"/><path d="M3.252 14.447V9.922a2.3 2.3 0 001.824-1.824h7.331a.43.43 0 000-.859h-7.72a.43.43 0 00-.429.43 1.437 1.437 0 01-1.435 1.439.43.43 0 00-.427.426v5.302a.429.429 0 00.43.43A1.437 1.437 0 014.261 16.7a.429.429 0 00.43.429H21.13a.43.43 0 00.43-.429 1.437 1.437 0 011.435-1.436.43.43 0 00.43-.429v-1.94a.43.43 0 10-.86 0v1.551a2.301 2.301 0 00-1.824 1.824H5.076a2.301 2.301 0 00-1.824-1.824z" fill="#FBD846"/><path d="M12.343 10.774h1.033a.43.43 0 000-.859h-.338V9.64a.43.43 0 10-.858 0v.287a1.347 1.347 0 00.163 2.69h.531a.492.492 0 110 .984h-1.031a.43.43 0 100 .859h.337v.276a.43.43 0 00.858 0v-.289a1.347 1.347 0 00-.164-2.69h-.531a.49.49 0 01-.36-.845.492.492 0 01.36-.137zm-4.465 1.109a.431.431 0 00-.117.384.375.375 0 00.025.08c.01.026.023.051.04.074a.394.394 0 00.117.119.44.44 0 00.543-.054.447.447 0 00.093-.14.395.395 0 00.032-.164.429.429 0 00-.733-.299zm9.402.541a.426.426 0 00.713 0 .368.368 0 00.04-.075.387.387 0 00.034-.162.43.43 0 10-.86 0 .455.455 0 00.033.162.45.45 0 00.04.075z" fill="#FBD846"/><path d="M28.11 18.928a2.034 2.034 0 00-2.744.211l-2.715 2.935a.428.428 0 00.011.62.43.43 0 00.619-.037l2.715-2.935a1.17 1.17 0 011.876.23 1.166 1.166 0 01-.118 1.3l-4.727 5.78a2.165 2.165 0 01-1.37.775l-9.149 1.324a3.062 3.062 0 00-2.228 1.54l-.25.45H1.614l4.36-6.443A6.133 6.133 0 0111.728 22a9.747 9.747 0 012.166.479c.476.17.978.258 1.484.26h4.376a1.267 1.267 0 011.265 1.265 1.367 1.367 0 01-1.366 1.365h-4.008c-.657 0-1.292.23-1.797.649l-.942.781a.43.43 0 00.55.661l.94-.781c.35-.29.79-.45 1.244-.45h4.012a2.227 2.227 0 002.224-2.223 2.127 2.127 0 00-2.124-2.124h-4.374a3.601 3.601 0 01-1.197-.212 10.599 10.599 0 00-2.358-.524 6.99 6.99 0 00-6.562 3.049L.45 31.306a.43.43 0 00.356.674h9.478a.43.43 0 00.374-.225l.374-.673a2.202 2.202 0 011.602-1.107l9.15-1.319a3.023 3.023 0 001.913-1.08l4.726-5.781a2.02 2.02 0 00-.308-2.867h-.004z"/></symbol><symbol id="hero-icon-02" viewBox="0 0 33 33"><path d="M.342 32.627h32.194L.342.433v32.194zm1-4.499H4.34v-1H1.341V24.13h2v-1h-2v-2.998h3v-1h-3v-2.999h2v-1h-2v-2.998h3v-1h-3v-8.29l28.782 28.782H1.34V28.13z" fill="#333"/><path d="M6.84 14.427v13.701h13.7L6.84 14.427zm.999 2.413l10.289 10.289H7.838V16.84z" fill="#333"/><path d="M32.518 23.818l-1.236-4.941L12.838.433 9.133 4.138l18.444 18.444 4.94 1.236zm-1.375-1.375l-3.055-.763L13.545 7.137l2.292-2.292L30.38 19.388l.764 3.055zM12.838 1.846l2.292 2.292-2.292 2.292-2.292-2.292 2.292-2.292z" fill="#FBD846"/></symbol><symbol id="hero-icon-03" viewBox="0 0 32 33"><path d="M31.216 30.823H.649l.648.51V1.14l-.648.51h30.567l-.65-.51v30.194c0 .66 1.298.66 1.298 0V1.14c0-.279-.294-.51-.648-.51H.649C.294.629 0 .86 0 1.139v30.194c0 .279.294.51.649.51h30.567c.839 0 .839-1.02 0-1.02z" fill="#333"/><path d="M15.35 1.127V31.51c0 .664 1.303.664 1.303 0V1.127c0-.664-1.303-.664-1.303 0z" fill="#FBD846"/><path d="M.651 1.886h30.697c.843 0 .843-1.303 0-1.303H.651c-.842 0-.842 1.303 0 1.303z" fill="#333"/><path d="M31.349 30.724H.65l.652.651V1.226l-.652.651h30.697l-.65-.651v30.149c0 .843 1.302.843 1.302 0V1.226a.656.656 0 00-.651-.652H.65a.656.656 0 00-.65.652v30.149c0 .357.295.652.651.652h30.697c.843 0 .843-1.303 0-1.303z" fill="#333"/><path d="M17.64 14.915v2.78c0 .843 1.304.843 1.304 0v-2.78c0-.833-1.303-.833-1.303 0zm-4.583 0v2.78c0 .843 1.303.843 1.303 0v-2.78c0-.833-1.303-.833-1.303 0z" fill="#FBD846"/></symbol><symbol id="hero-icon-04" viewBox="0 0 33 33"><path d="M18.585 16.755c0-.998-.687-1.83-1.61-2.07V9.242a.536.536 0 10-1.073 0v5.441a2.144 2.144 0 00-1.533 1.534h-3.832a.536.536 0 100 1.073h3.832a2.144 2.144 0 002.07 1.61 2.149 2.149 0 002.146-2.146zm-2.146 1.073a1.074 1.074 0 010-2.147 1.074 1.074 0 010 2.147zm0-11.805c.296 0 .537-.24.537-.537V4.95a.536.536 0 10-1.074 0v.536c0 .297.24.537.537.537zm-.537 21.999v.537a.536.536 0 101.074 0v-.537a.536.536 0 10-1.074 0zM28.243 17.29a.536.536 0 100-1.072h-.537a.536.536 0 100 1.073h.537zM4.634 16.218a.536.536 0 100 1.073h.537a.536.536 0 100-1.073h-.537z"/><path d="M24.406 9.323a.535.535 0 00.38-.157l.379-.38a.536.536 0 10-.76-.759l-.379.38a.536.536 0 00.38.916zM8.091 24.343l-.379.38a.536.536 0 10.759.758l.38-.38a.536.536 0 10-.76-.758zM8.85 8.407l-.38-.38a.536.536 0 10-.758.76l.38.379a.535.535 0 00.758 0 .536.536 0 000-.76z" fill="#FBD846"/><path d="M16.439.723C7.563.723.342 7.943.342 16.82c0 8.876 7.22 16.097 16.097 16.097 1.919 0 3.798-.336 5.588-.998a.537.537 0 10-.373-1.006c-1.67.617-3.424.93-5.215.93-8.284 0-15.024-6.74-15.024-15.023 0-8.284 6.74-15.024 15.024-15.024 8.284 0 15.024 6.74 15.024 15.024a14.99 14.99 0 01-.931 5.215.537.537 0 001.006.372 16.04 16.04 0 00.998-5.587c0-8.876-7.221-16.097-16.097-16.097z"/><path d="M27.17 22.776v-.591a.536.536 0 10-1.073 0v.593a2.679 2.679 0 00-1.512.895c-.327.387-.48.883-.426 1.397.055.525.326 1.012.742 1.336l1.196.93v2.918a1.607 1.607 0 01-1.073-1.511.536.536 0 10-1.073 0c0 1.295.924 2.38 2.146 2.629v.471a.536.536 0 101.074 0v-.473a2.678 2.678 0 001.512-.895c.328-.389.48-.884.426-1.398a1.957 1.957 0 00-.742-1.335l-1.196-.93v-2.919a1.608 1.608 0 011.073 1.511.536.536 0 101.073 0 2.688 2.688 0 00-2.146-2.628zm.538 5.813a.881.881 0 01.333.6c.023.22-.04.43-.177.593-.187.22-.428.375-.693.47V28.17l.537.419zm-2.148-3.03a.881.881 0 01-.333-.601.784.784 0 01.177-.592c.187-.22.428-.375.693-.47v2.08l-.537-.417z" fill="#FBD846"/></symbol><symbol id="hero-icon-05" viewBox="0 0 28 34"><g stroke-width="1.5"><path d="M25.473 17.206v14.1c0 .664-.456 1.174-1.049 1.174H3.305c-.593 0-1.05-.51-1.05-1.174v-14.1" stroke="#333"/><path fill-rule="evenodd" clip-rule="evenodd" d="M26.387 15.98c0 .664-.457 1.175-1.05 1.175H2.347c-.592 0-1.048-.511-1.048-1.175v-5.262c0-.664.456-1.175 1.049-1.175h22.99c.592 0 1.049.51 1.049 1.175v5.262z" stroke="#333"/><path fill-rule="evenodd" clip-rule="evenodd" d="M20.594 5.814c-1.003 1.124-5.565 4.393-6.614 3.27-1.003-1.125 1.916-6.284 2.92-7.408 1.003-1.124 2.645-1.124 3.694 0 1.004 1.124 1.004 3.014 0 4.138z" stroke="#FBD846"/><path fill-rule="evenodd" clip-rule="evenodd" d="M7.046 5.814c1.003 1.123 5.61 4.444 6.614 3.32 1.003-1.124-1.916-6.283-2.965-7.407-1.004-1.124-2.646-1.124-3.65 0-1.003 1.072-1.003 2.912 0 4.087z" stroke="#FBD846"/><path d="M10.695 13.681s.684-2.35 3.33-3.525V32.43m-.183-22.223s1.049 4.087 4.698 4.7" stroke="#FBD846"/></g></symbol><symbol id="popular-plus" viewBox="0 0 21 21"><path d="M.693 10.5h19.615M10.5.694v19.615" stroke-width="2" stroke-miterlimit="10"/></symbol><symbol id="styles-btn" viewBox="0 0 50 50"><circle cx="25" cy="25" r="25" fill="#FBD846"/><path d="M22.908 14.468a8.437 8.437 0 018.439 8.439 8.407 8.407 0 01-1.882 5.315l5.8 5.8a.876.876 0 010 1.243.876.876 0 01-1.241 0l-5.801-5.801a8.408 8.408 0 01-5.315 1.882 8.44 8.44 0 010-16.878zm0 15.125a6.688 6.688 0 006.686-6.686 6.688 6.688 0 00-6.686-6.686 6.688 6.688 0 00-6.686 6.686 6.688 6.688 0 006.686 6.686z"/></symbol><symbol id="file-icon" viewBox="0 0 50 51"><circle cx="25" cy="25.5" r="25" fill="#FBD846"/><path d="M20.333 16.012V32.84s-.31 3.532 4.235 3.532c4.099 0 4.099-3.532 4.099-3.532V15.142s0-4.642-5.834-4.642C17 10.5 17 15.142 17 15.142v17.697s0 6.673 7.5 6.673 7.5-6.673 7.5-6.673V15.142c0-.725-1.667-.725-1.667 0v17.697s.607 5.354-5.833 5.354c-5.833 0-5.833-5.354-5.833-5.354V15.142s0-3.323 4.166-3.323C27 11.819 27 15.142 27 15.142v17.697s0 2.081-2.432 2.081c-2.431 0-2.568-2.08-2.568-2.08V16.011c0-.725-1.667-.725-1.667 0z" fill="#fff"/></symbol><symbol id="mix-icon" viewBox="0 0 92 93"><path d="M60.149 34.683l-30.2 24c-.6.5-.8 1.5-.2 2.1.3.4.7.6 1.2.6.3 0 .7-.1.9-.3l30.2-24c.6-.5.8-1.5.2-2.1-.5-.7-1.4-.8-2.1-.3zm-22.099 10.7c.4 0 .8 0 1.2-.1 4.1-.6 7-4.5 6.3-8.7-.3-2-1.4-3.8-3-5-1.6-1.2-3.6-1.7-5.6-1.4-2 .3-3.8 1.4-5 3-1.2 1.6-1.7 3.6-1.4 5.6.6 3.9 3.9 6.6 7.5 6.6zm-.7-12.1c.2 0 .5-.1.7-.1 2.2 0 4.2 1.6 4.5 3.9.4 2.5-1.3 4.8-3.8 5.2-2.5.4-4.8-1.3-5.2-3.8-.4-2.5 1.4-4.8 3.8-5.2zm16.7 17.1c-4.2 0-7.6 3.4-7.6 7.6 0 4.2 3.4 7.6 7.6 7.6 4.2 0 7.6-3.4 7.6-7.6-.1-4.2-3.5-7.6-7.6-7.6zm0 12.1c-2.5 0-4.6-2.1-4.6-4.6 0-2.5 2.1-4.6 4.6-4.6 2.5 0 4.6 2.1 4.6 4.6-.1 2.6-2.1 4.6-4.6 4.6z" fill="#333"/><path d="M91.45 46.882c0-.1.1-.3.1-.4 0-4.3-4.5-6.5-8.4-8.4-2.8-1.4-5.8-2.9-6.6-4.7-.8-1.9.3-5 1.4-7.9 1.5-4.1 3-8.3.2-11.1-2.8-2.8-6.8-1.8-10.8-.9-2.8.6-5.7 1.3-7.6.5-1.9-.8-3.5-3.3-5-5.7-2.2-3.4-4.6-7.3-8.8-7.3-4.2 0-6.6 3.9-8.7 7.4-1.5 2.5-3 5-4.9 5.8-1.9.8-4.9.1-7.7-.6-4-1-8.1-2-10.8.7-2.8 2.8-1.4 7-.1 11.1 1 3 1.9 6 1.1 8-.8 1.9-3.6 3.3-6.3 4.7-3.8 2-8.1 4.2-8.1 8.4 0 .1 0 .3.1.4 0 .1-.1.3-.1.4 0 4.2 4.3 6.5 8.1 8.4 2.7 1.4 5.5 2.8 6.3 4.7.8 1.9-.2 5-1.1 8-1.3 4.1-2.7 8.3.1 11.1 2.8 2.8 6.9 1.7 10.8.7 2.8-.7 5.8-1.4 7.7-.6 1.9.8 3.4 3.3 4.9 5.8 2.1 3.5 4.5 7.4 8.7 7.4 4.2 0 6.7-3.9 8.8-7.3 1.5-2.4 3.1-4.9 5-5.7 2-.8 4.8-.2 7.6.5 3.9.9 8 1.9 10.8-.9 2.8-2.8 1.3-7-.2-11.1-1.1-3-2.2-6-1.4-7.9.8-1.9 3.7-3.3 6.6-4.7 3.9-2 8.4-4.2 8.4-8.4 0-.2-.1-.3-.1-.4zm-9.7 6.1c-3.3 1.7-6.8 3.4-8 6.3-1.3 3 .1 6.6 1.3 10.1 1.2 3.3 2.4 6.5.9 7.9-1.6 1.6-4.7.9-8 .1s-6.6-1.5-9.5-.3c-2.8 1.2-4.6 4-6.3 6.8-1.9 3-3.7 5.9-6.3 5.9-2.5 0-4.3-2.9-6.2-6-1.7-2.9-3.5-5.8-6.3-7-2.9-1.2-6.3-.4-9.6.5-3.3.8-6.4 1.6-8 .1-1.5-1.5-.5-4.7.6-8 1.1-3.5 2.3-7.1 1-10-1.2-2.9-4.5-4.6-7.7-6.2-3.3-1.7-6.4-3.3-6.4-5.8 0-.1 0-.3-.1-.4 0-.1.1-.3.1-.4 0-2.4 3.1-4 6.4-5.8 3.2-1.6 6.5-3.3 7.7-6.2 1.2-3 .1-6.6-1-10-1.1-3.4-2.1-6.6-.6-8 1.6-1.6 4.7-.8 8 .1 3.3.8 6.7 1.7 9.6.5 2.8-1.2 4.6-4.1 6.3-7 1.9-3.1 3.6-6 6.2-6s4.4 2.9 6.3 5.9c1.8 2.8 3.6 5.6 6.3 6.8 2.9 1.2 6.2.4 9.5-.3 3.3-.8 6.4-1.5 8 .1 1.5 1.4.3 4.6-.9 7.9-1.3 3.5-2.6 7.1-1.3 10.1 1.2 2.9 4.7 4.6 8 6.3 3.5 1.7 6.7 3.4 6.7 5.8 0 .1 0 .3.1.4 0 .1-.1.3-.1.4.1 2-3.2 3.7-6.7 5.4z" fill="#FBD846"/></symbol><symbol id="production-icon" viewBox="0 0 138 160"><circle cx="20.775" cy="139.309" r="20" fill="#FBD846" fill-opacity=".5"/><circle cx="20.775" cy="139.309" r="15" fill="#FBD846"/><path stroke="#FBD846" stroke-width="3" d="M23.202 135.137L136.231 1.42"/></symbol><symbol id="slider-next" viewBox="0 0 12 20"><path d="M.277 17.131l7.114-6.96L.277 3.059 2.442.893l9.28 9.279-9.28 9.28-2.165-2.32z" fill="#FBD846"/></symbol><symbol id="slider-prev" viewBox="0 0 12 19"><path d="M11.723 2.728l-7.114 6.96 7.114 7.114-2.166 2.165-9.279-9.28L9.558.409l2.165 2.32z" fill="#FBD846"/></symbol><symbol id="geo" viewBox="0 0 28 33"><g stroke="#99CB38" stroke-width="2" stroke-linecap="square"><path d="M13.516 31.35c8.333-7 12.5-13.666 12.5-20 0-5.522-5.597-10-12.5-10-6.904 0-12.5 4.478-12.5 10 0 6.334 4.166 13 12.5 20z"/><path d="M13.518 14.986c1.725 0 3.125-1.22 3.125-2.727 0-1.506-1.4-2.727-3.125-2.727-1.726 0-3.125 1.221-3.125 2.727 0 1.506 1.399 2.727 3.125 2.727z"/></g></symbol><symbol id="phone" viewBox="0 0 28 28"><path d="M12.993 23.25l3.555-3.545 5.875 4.087-1.317 1.314a3.385 3.385 0 01-3.357.846c-3.636-1.084-6.903-3.07-9.8-5.959-2.897-2.889-4.89-6.147-5.976-9.773a3.363 3.363 0 01.849-3.347L4.14 5.558l4.097 5.86-3.555 3.545m13.113.547l.047-.669C18.045 11.96 15.58 9.6 12.7 9.92m9.21 6.075l.084-1.209c.367-5.208-4.09-9.473-9.294-8.893m13.972 10.606l.129-1.833C27.356 6.764 20.593.293 12.7 1.173" stroke="#99CB38" stroke-width="2"/></symbol><symbol id="email" viewBox="0 0 28 18"><path d="M1.016 1.835h25m-25 0v15m0-15l12.5 9.643 12.5-9.643m0 0v15m0 0h-25m25 0l-8.555-8.38m-16.445 8.38l8.53-8.357" stroke="#99CB38" stroke-width="2" stroke-linecap="round"/></symbol><symbol id="vk" viewBox="0 0 22 14"><path d="M21.024 11.86a1.551 1.551 0 00-.071-.138c-.367-.66-1.068-1.471-2.102-2.432l-.022-.022-.011-.011-.011-.011h-.011c-.47-.448-.767-.749-.892-.903-.227-.293-.278-.59-.154-.891.088-.228.419-.708.99-1.442.302-.389.54-.7.716-.935 1.27-1.688 1.82-2.766 1.65-3.235l-.065-.11c-.044-.066-.158-.127-.34-.182-.184-.055-.42-.064-.705-.027l-3.17.022a.411.411 0 00-.22.005l-.143.033-.055.028-.044.033a.49.49 0 00-.121.115.753.753 0 00-.11.193 17.975 17.975 0 01-1.177 2.476c-.272.455-.521.85-.749 1.183a5.69 5.69 0 01-.572.737 4 4 0 01-.418.38c-.125.095-.22.136-.286.121a8.174 8.174 0 01-.188-.044.732.732 0 01-.247-.27 1.206 1.206 0 01-.127-.429 4.727 4.727 0 01-.038-.446 9.08 9.08 0 01.005-.528c.008-.227.011-.381.011-.462 0-.279.006-.582.017-.908.01-.326.02-.585.027-.776.008-.19.011-.392.011-.605 0-.213-.013-.38-.038-.5a1.711 1.711 0 00-.116-.353.592.592 0 00-.225-.264 1.271 1.271 0 00-.369-.149c-.389-.088-.884-.135-1.486-.143-1.364-.014-2.24.074-2.63.265-.154.08-.293.19-.418.33-.132.161-.15.25-.055.264.44.066.752.223.935.473l.067.132c.051.095.102.264.154.506.051.242.084.51.099.803.036.536.036.995 0 1.376-.037.382-.072.679-.105.891a1.785 1.785 0 01-.148.518 2.19 2.19 0 01-.133.242.19.19 0 01-.054.055.824.824 0 01-.298.055c-.102 0-.227-.052-.374-.154a2.64 2.64 0 01-.456-.424 5.663 5.663 0 01-.534-.754A13.157 13.157 0 015.6 4.404l-.176-.32c-.11-.205-.26-.504-.45-.896-.192-.393-.36-.773-.507-1.14a.725.725 0 00-.264-.352l-.055-.033a.754.754 0 00-.176-.093 1.168 1.168 0 00-.253-.072L.704 1.52c-.308 0-.517.07-.627.21l-.044.065A.356.356 0 000 1.971c0 .081.022.18.066.298.44 1.034.919 2.032 1.436 2.993.517.961.967 1.735 1.348 2.322.382.587.77 1.14 1.167 1.661.396.521.658.855.786 1.002.129.147.23.257.303.33l.275.264c.176.176.435.387.776.633s.72.488 1.134.726c.414.239.897.433 1.447.583.55.15 1.086.211 1.607.182h1.265c.257-.022.451-.103.583-.242l.044-.055a.73.73 0 00.083-.204 1.12 1.12 0 00.038-.302c-.007-.316.017-.6.072-.853.054-.253.117-.444.187-.572a1.405 1.405 0 01.424-.484.708.708 0 01.088-.039c.176-.058.383-.002.622.171.238.172.462.385.67.638.21.254.461.538.755.853.293.316.55.55.77.704l.22.133c.147.088.338.168.572.242.235.073.44.091.617.055l2.817-.044c.278 0 .495-.046.649-.138.154-.092.245-.193.275-.303a.852.852 0 00.006-.374 1.382 1.382 0 00-.078-.291z" fill="#99CB38"/></symbol><symbol id="od" viewBox="0 0 13 23"><path d="M6.376 3.64a2.353 2.353 0 012.35 2.35 2.353 2.353 0 01-2.35 2.35 2.354 2.354 0 01-2.351-2.35 2.354 2.354 0 012.35-2.35zm0 8.027a5.682 5.682 0 005.677-5.676A5.683 5.683 0 006.377.313 5.684 5.684 0 00.698 5.99a5.683 5.683 0 005.678 5.676zm2.297 4.632c1.156-.264 2.27-.72 3.297-1.366a1.664 1.664 0 00-1.772-2.817 7.208 7.208 0 01-7.645 0 1.663 1.663 0 00-1.772 2.817A10.651 10.651 0 004.078 16.3L.904 19.473a1.664 1.664 0 002.353 2.352l3.118-3.119 3.12 3.12a1.662 1.662 0 102.352-2.353L8.673 16.3z" fill="#99CB38"/></symbol><symbol id="header-phone" viewBox="0 0 22 22"><path d="M9.929 18.726l2.844-2.836 4.7 3.269-1.054 1.052c-.703.7-1.733.96-2.685.676-2.91-.867-5.523-2.456-7.84-4.767-2.318-2.311-3.912-4.917-4.78-7.819a2.69 2.69 0 01.678-2.677l1.054-1.051L6.124 9.26 3.28 12.096m10.49.438l.038-.535c.162-2.306-1.81-4.194-4.114-3.937m7.367 4.86l.068-.967c.293-4.167-3.273-7.579-7.435-7.115m11.177 8.485l.103-1.466C21.42 5.537 16.01.36 9.694 1.064" stroke="#FBD846" stroke-width="2"/></symbol></svg>