<svg width="13" height="23" viewBox="0 0 13 23" fill="none" xmlns="http://www.w3.org/2000/svg"><path d="M6.376 3.64a2.353 2.353 0 012.35 2.35 2.353 2.353 0 01-2.35 2.35 2.354 2.354 0 01-2.351-2.35 2.354 2.354 0 012.35-2.35zm0 8.027a5.682 5.682 0 005.677-5.676A5.683 5.683 0 006.377.313 5.684 5.684 0 00.698 5.99a5.683 5.683 0 005.678 5.676zm2.297 4.632c1.156-.264 2.27-.72 3.297-1.366a1.664 1.664 0 00-1.772-2.817 7.208 7.208 0 01-7.645 0 1.663 1.663 0 00-1.772 2.817A10.651 10.651 0 004.078 16.3L.904 19.473a1.664 1.664 0 002.353 2.352l3.118-3.119 3.12 3.12a1.662 1.662 0 102.352-2.353L8.673 16.3z" fill="#99CB38"/></svg>