<svg width="28" height="28" viewBox="0 0 28 28" fill="none" xmlns="http://www.w3.org/2000/svg"><path d="M12.993 23.25l3.555-3.545 5.875 4.087-1.317 1.314a3.385 3.385 0 01-3.357.846c-3.636-1.084-6.903-3.07-9.8-5.959-2.897-2.889-4.89-6.147-5.976-9.773a3.363 3.363 0 01.849-3.347L4.14 5.558l4.097 5.86-3.555 3.545m13.113.547l.047-.669C18.045 11.96 15.58 9.6 12.7 9.92m9.21 6.075l.084-1.209c.367-5.208-4.09-9.473-9.294-8.893m13.972 10.606l.129-1.833C27.356 6.764 20.593.293 12.7 1.173" stroke="#99CB38" stroke-width="2"/></svg>