<svg width="22" height="14" viewBox="0 0 22 14" fill="none" xmlns="http://www.w3.org/2000/svg"><path d="M21.024 11.86a1.551 1.551 0 00-.071-.138c-.367-.66-1.068-1.471-2.102-2.432l-.022-.022-.011-.011-.011-.011h-.011c-.47-.448-.767-.749-.892-.903-.227-.293-.278-.59-.154-.891.088-.228.419-.708.99-1.442.302-.389.54-.7.716-.935 1.27-1.688 1.82-2.766 1.65-3.235l-.065-.11c-.044-.066-.158-.127-.34-.182-.184-.055-.42-.064-.705-.027l-3.17.022a.411.411 0 00-.22.005l-.143.033-.055.028-.044.033a.49.49 0 00-.121.115.753.753 0 00-.11.193 17.975 17.975 0 01-1.177 2.476c-.272.455-.521.85-.749 1.183a5.69 5.69 0 01-.572.737 4 4 0 01-.418.38c-.125.095-.22.136-.286.121a8.174 8.174 0 01-.188-.044.732.732 0 01-.247-.27 1.206 1.206 0 01-.127-.429 4.727 4.727 0 01-.038-.446 9.08 9.08 0 01.005-.528c.008-.227.011-.381.011-.462 0-.279.006-.582.017-.908.01-.326.02-.585.027-.776.008-.19.011-.392.011-.605 0-.213-.013-.38-.038-.5a1.711 1.711 0 00-.116-.353.592.592 0 00-.225-.264 1.271 1.271 0 00-.369-.149c-.389-.088-.884-.135-1.486-.143-1.364-.014-2.24.074-2.63.265-.154.08-.293.19-.418.33-.132.161-.15.25-.055.264.44.066.752.223.935.473l.067.132c.051.095.102.264.154.506.051.242.084.51.099.803.036.536.036.995 0 1.376-.037.382-.072.679-.105.891a1.785 1.785 0 01-.148.518 2.19 2.19 0 01-.133.242.19.19 0 01-.054.055.824.824 0 01-.298.055c-.102 0-.227-.052-.374-.154a2.64 2.64 0 01-.456-.424 5.663 5.663 0 01-.534-.754A13.157 13.157 0 015.6 4.404l-.176-.32c-.11-.205-.26-.504-.45-.896-.192-.393-.36-.773-.507-1.14a.725.725 0 00-.264-.352l-.055-.033a.754.754 0 00-.176-.093 1.168 1.168 0 00-.253-.072L.704 1.52c-.308 0-.517.07-.627.21l-.044.065A.356.356 0 000 1.971c0 .081.022.18.066.298.44 1.034.919 2.032 1.436 2.993.517.961.967 1.735 1.348 2.322.382.587.77 1.14 1.167 1.661.396.521.658.855.786 1.002.129.147.23.257.303.33l.275.264c.176.176.435.387.776.633s.72.488 1.134.726c.414.239.897.433 1.447.583.55.15 1.086.211 1.607.182h1.265c.257-.022.451-.103.583-.242l.044-.055a.73.73 0 00.083-.204 1.12 1.12 0 00.038-.302c-.007-.316.017-.6.072-.853.054-.253.117-.444.187-.572a1.405 1.405 0 01.424-.484.708.708 0 01.088-.039c.176-.058.383-.002.622.171.238.172.462.385.67.638.21.254.461.538.755.853.293.316.55.55.77.704l.22.133c.147.088.338.168.572.242.235.073.44.091.617.055l2.817-.044c.278 0 .495-.046.649-.138.154-.092.245-.193.275-.303a.852.852 0 00.006-.374 1.382 1.382 0 00-.078-.291z" fill="#99CB38"/></svg>