<svg width="50" height="50" viewBox="0 0 50 50" fill="none" xmlns="http://www.w3.org/2000/svg"><circle cx="25" cy="25" r="25" fill="#FBD846" fill-opacity=".8"/><path d="M22.908 14.468a8.437 8.437 0 018.439 8.439 8.407 8.407 0 01-1.882 5.315l5.8 5.8a.876.876 0 010 1.243.876.876 0 01-1.241 0l-5.801-5.801a8.408 8.408 0 01-5.315 1.882 8.44 8.44 0 010-16.878zm0 15.125a6.688 6.688 0 006.686-6.686 6.688 6.688 0 00-6.686-6.686 6.688 6.688 0 00-6.686 6.686 6.688 6.688 0 006.686 6.686z" fill="#000"/></svg>