<svg width="22" height="22" viewBox="0 0 22 22" fill="none" xmlns="http://www.w3.org/2000/svg"><path d="M9.929 18.726l2.844-2.836 4.7 3.269-1.054 1.052c-.703.7-1.733.96-2.685.676-2.91-.867-5.523-2.456-7.84-4.767-2.318-2.311-3.912-4.917-4.78-7.819a2.69 2.69 0 01.678-2.677l1.054-1.051L6.124 9.26 3.28 12.096m10.49.438l.038-.535c.162-2.306-1.81-4.194-4.114-3.937m7.367 4.86l.068-.967c.293-4.167-3.273-7.579-7.435-7.115m11.177 8.485l.103-1.466C21.42 5.537 16.01.36 9.694 1.064" stroke="#FBD846" stroke-width="2"/></svg>